<svg width="12" height="11" viewBox="0 0 12 11" fill="none" xmlns="http://www.w3.org/2000/svg">
<path d="M10.3467 1.07141C10.5567 0.871528 10.8361 0.761022 11.1259 0.763216C11.4158 0.765409 11.6935 0.88013 11.9004 1.08317C12.1073 1.28621 12.2273 1.56169 12.2349 1.85148C12.2426 2.14127 12.1374 2.42271 11.9415 2.6364L5.99456 10.0738C5.8923 10.1839 5.76888 10.2723 5.63168 10.3337C5.49448 10.395 5.34632 10.4281 5.19605 10.4309C5.04578 10.4337 4.8965 10.4061 4.75712 10.3499C4.61774 10.2936 4.49113 10.2099 4.38487 10.1036L0.441112 6.15984C0.331285 6.0575 0.243196 5.93409 0.182099 5.79697C0.121002 5.65985 0.0881493 5.51183 0.0855011 5.36174C0.0828529 5.21164 0.110463 5.06255 0.166685 4.92336C0.222907 4.78417 0.306588 4.65773 0.412737 4.55158C0.518885 4.44543 0.645326 4.36175 0.784518 4.30553C0.923709 4.24931 1.0728 4.2217 1.22289 4.22434C1.37299 4.22699 1.52101 4.25985 1.65813 4.32094C1.79525 4.38204 1.91866 4.47013 2.021 4.57996L5.14202 7.69949L10.3184 1.10421C10.3277 1.09273 10.3377 1.08178 10.3482 1.07141H10.3467Z" fill="white"/>
</svg>
